#!OML:ASF X:\für Bonn\!DataBase\2005_08_12_Daniel\c3d\Daniel.ASF
:FULLY-SPECIFIED
:DEGREES
136
root 39.3318 16.7583 1.73805 -15.4955 70.3214 -362.312
lowerback 13.6726 0.554983 5.74914
upperback -0.0217759 1.66282 -0.230367
thorax -7.54606 0.5992 -3.83064
lowerneck 2.77609 1.93824 -2.69383
upperneck 11.3795 2.89784 -0.632175
head 3.13127 1.40604 0.315578
rclavicle 2.77056e-014 1.78906e-014
rhumerus -42.1385 -34.4134 -71.5769
rradius 13.6364
rwrist 52.2423
rhand -17.0852 8.03451
rfingers 7.12502
rthumb 9.15316 -21.7469
lclavicle 2.77056e-014 1.78906e-014
lhumerus -50.5879 43.804 57.9754
lradius 16.4161
lwrist -41.5983
lhand -16.5431 -4.92726
lfingers 7.12502
lthumb 9.6762 24.8305
rfemur -11.2121 6.02421 26.8138
rtibia 41.0107
rfoot -19.8017 0.964951
rtoes -6.08433
lfemur -14.0324 -10.0838 -14.1668
ltibia 48.237
lfoot -22.1901 -7.60415
ltoes -2.59346
137
root 39.3913 16.8434 1.75669 -15.2171 70.1905 -362.569
lowerback 12.9109 0.595701 5.77947
upperback -0.209947 1.6711 -0.249562
thorax -7.31602 0.603862 -3.85023
lowerneck 1.8897 1.83367 -3.10735
upperneck 11.7401 2.74279 -0.113593
head 3.4099 1.31825 0.568421
rclavicle 3.23025e-015 -1.07344e-014
rhumerus -53.6883 -46.1955 -53.8313
rradius 11.2106
rwrist 66.8834
rhand -15.1137 6.34639
rfingers 7.12502
rthumb 11.055 -23.3425
lclavicle 3.23025e-015 -1.07344e-014
lhumerus -73.7544 54.856 26.8738
lradius 14.0068
lwrist -64.9077
lhand -15.569 -3.79987
lfingers 7.12502
lthumb 10.6159 25.912
rfemur -10.4973 6.38281 26.8892
rtibia 39.4437
rfoot -20.1661 0.992014
rtoes -6.10696
lfemur -13.5255 -10.1403 -14.0972
ltibia 47.0716
lfoot -22.671 -7.21825
ltoes -3.16994
138
root 39.4507 16.9174 1.77394 -15.0471 70.075 -362.924
lowerback 12.1762 0.613853 5.84121
upperback -0.39231 1.65774 -0.246191
thorax -7.09597 0.597408 -3.86035
lowerneck 1.20315 1.70922 -3.53505
upperneck 11.8343 2.5532 0.35981
head 3.56512 1.21535 0.804389
rclavicle -1.25483e-014 3.27995e-015
rhumerus -73.0304 -53.8379 -28.3051
rradius 9.78495
rwrist 81.4265
rhand -13.4081 4.46014
rfingers 7.12502
rthumb 12.6997 -25.1337
lclavicle -1.25483e-014 3.27995e-015
lhumerus -105.973 54.7878 -13.2657
lradius 13.3757
lwrist -88.024
lhand -14.4664 -1.9971
lfingers 7.12502
lthumb 11.6793 27.6574
rfemur -9.81127 6.77279 27.0023
rtibia 37.9606
rfoot -20.749 1.08457
rtoes -6.8467
lfemur -13.1007 -10.1471 -13.9666
ltibia 46.0208
lfoot -23.2287 -6.9683
ltoes -3.85214
139
root 39.5094 16.9872 1.78972 -14.8779 69.9297 -363.271
lowerback 11.4762 0.635774 5.95158
upperback -0.576067 1.65653 -0.265688
thorax -6.89288 0.594288 -3.9257
lowerneck 0.666971 1.5837 -3.88273
upperneck 11.7078 2.35365 0.811324
head 3.61924 1.11308 1.01503
rclavicle -5.41688e-015 9.54166e-015
rhumerus -97.6053 -54.6562 2.66597
rradius 9.39296
rwrist 95.799
rhand -11.7377 2.98082
rfingers 7.12502
rthumb 14.3097 -26.5061
lclavicle -5.41688e-015 9.54166e-015
lhumerus -124.844 46.6235 -39.2071
lradius 13.8866
lwrist -106.323
lhand -13.1742 0.3947
lfingers 7.12502
lthumb 12.9253 29.9744
rfemur -9.17214 7.14922 27.1157
rtibia 36.5452
rfoot -21.2136 1.12691
rtoes -6.84051
lfemur -12.7362 -10.0758 -13.8224
ltibia 45.0832
lfoot -23.8804 -6.74362
ltoes -4.86444
140
root 39.5671 17.0505 1.80297 -14.9236 69.7956 -363.766
lowerback 10.8938 0.640128 6.12486
upperback -0.759308 1.64978 -0.257233
thorax -6.75522 0.584785 -3.9995
lowerneck 0.114728 1.43558 -4.14718
upperneck 11.635 2.13752 1.16638
head 3.70022 1.00358 1.18057
rclavicle 1.77415e-014 -5.96354e-016
rhumerus -117.802 -48.2873 29.8747
rradius 9.76346
rwrist 110.185
rhand -10.5583 2.45833
rfingers 7.12502
rthumb 15.4459 -26.9445
lclavicle 1.77415e-014 -5.96354e-016
lhumerus -132.53 38.1923 -52.9643
lradius 14.8849
lwrist -119.308
lhand -11.8373 2.86405
lfingers 7.12502
lthumb 14.2137 32.3577
rfemur -8.50735 7.52141 27.2933
rtibia 35.1879
rfoot -21.6627 1.14388
rtoes -6.52734
lfemur -12.3594 -10.0305 -13.6444
ltibia 44.2392
lfoot -24.6041 -6.45489
ltoes -6.20728
141
root 39.6237 17.1093 1.81498 -15.0224 69.6508 -364.275
lowerback 10.3557 0.637809 6.31845
upperback -0.911727 1.63852 -0.235187
thorax -6.60968 0.573946 -4.07055
lowerneck -0.542552 1.27415 -4.34935
upperneck 11.6262 1.9156 1.46103
head 3.8277 0.891833 1.31783
rclavicle 8.30671e-014 1.09332e-015
rhumerus -129.714 -37.6276 49.7206
rradius 10.3366
rwrist 124.783
rhand -10.5205 2.52345
rfingers 7.12502
rthumb 15.4824 -26.8766
lclavicle 8.30671e-014 1.09332e-015
lhumerus -135.529 31.5315 -61.219
lradius 16.026
lwrist -128.222
lhand -10.5058 5.0706
lfingers 7.12502
lthumb 15.4965 34.4696
rfemur -7.84092 7.90075 27.4839
rtibia 33.8743
rfoot -22.0825 1.10786
rtoes -5.99086
lfemur -11.992 -9.98063 -13.4594
ltibia 43.4873
lfoot -25.2484 -6.16029
ltoes -7.15256
142
root 39.6791 17.1618 1.82386 -15.1841 69.5049 -364.77
lowerback 9.95362 0.614275 6.56075
upperback -1.0544 1.61276 -0.220433
thorax -6.53143 0.55204 -4.17864
lowerneck -1.20466 1.11612 -4.59997
upperneck 11.5586 1.70075 1.76361
head 3.93756 0.783117 1.46587
rclavicle -3.06812e-014 -1.76421e-015
rhumerus -130.7 -33.2299 54.9915
rradius 10.6622
rwrist 128.127
rhand -9.54588 1.99549
rfingers 7.12502
rthumb 16.4209 -27.3295
lclavicle -3.06812e-014 -1.76421e-015
lhumerus -136.048 26.9466 -66.142
lradius 16.9736
lwrist -133.514
lhand -9.491 6.6522
lfingers 7.12502
lthumb 16.4738 35.9728
rfemur -7.15606 8.26357 27.6742
rtibia 32.6233
rfoot -22.4706 1.08292
rtoes -5.66176
lfemur -11.5836 -10.007 -13.3149
ltibia 42.8145
lfoot -25.8226 -5.7403
ltoes -7.85872
143
root 39.7334 17.205 1.8308 -15.3845 69.3555 -365.268
lowerback 9.62799 0.589847 6.82351
upperback -1.19229 1.59311 -0.197808
thorax -6.49074 0.531283 -4.29311
lowerneck -1.87642 0.948179 -4.88279
upperneck 11.4774 1.47611 2.08382
head 4.04761 0.670167 1.6255
rclavicle 2.66185e-014 1.20265e-014
rhumerus -129.405 -31.1464 56.7868
rradius 10.7441
rwrist 128.346
rhand -8.49286 1.71167
rfingers 7.12502
rthumb 17.4346 -27.5265
lclavicle 2.66185e-014 1.20265e-014
lhumerus -135.473 23.7486 -69.438
lradius 17.6064
lwrist -136.383
lhand -8.7445 7.45869
lfingers 7.12502
lthumb 17.1924 36.7181
rfemur -6.48982 8.66341 27.884
rtibia 31.4616
rfoot -22.8613 0.996079
rtoes -5.5771
lfemur -11.1987 -10.0336 -13.1783
ltibia 42.2256
lfoot -26.2757 -5.26519
ltoes -8.28786
